<?xml version="1.0" standalone="no"?>
<!DOCTYPE svg PUBLIC "-//W3C//DTD SVG 20010904//EN"
 "http://www.w3.org/TR/2001/REC-SVG-20010904/DTD/svg10.dtd">
<svg version="1.0" xmlns="http://www.w3.org/2000/svg"
 width="432.000000pt" height="103.000000pt" viewBox="0 0 432.000000 103.000000"
 preserveAspectRatio="xMidYMid meet">

<g transform="translate(0.000000,103.000000) scale(0.100000,-0.100000)"
fill="#000000" stroke="none">
<path d="M660 909 c-30 -16 -77 -33 -103 -38 -26 -5 -55 -15 -65 -23 -9 -8
-48 -27 -85 -43 -140 -58 -267 -159 -313 -248 -47 -91 -41 -200 13 -280 26
-37 26 -39 10 -73 -17 -34 -22 -64 -12 -64 13 0 85 51 94 67 10 17 10 17 11 1
0 -24 39 -32 116 -25 46 5 74 2 101 -9 49 -21 153 -11 130 12 -3 4 -30 14 -59
24 l-52 17 63 18 c78 24 92 45 60 89 -21 30 -22 30 -1 12 28 -24 37 -53 22
-71 -11 -13 -2 -15 63 -15 41 0 82 -3 91 -6 30 -12 16 18 -35 74 -50 55 -51
56 -47 115 2 44 -1 61 -11 65 -14 5 -121 -102 -121 -122 0 -7 -18 -18 -41 -25
-35 -11 -48 -9 -104 9 -36 12 -69 19 -75 15 -17 -10 -11 10 13 45 12 18 45 46
74 62 l52 29 -5 -33 c-3 -23 1 -40 15 -58 30 -37 44 -15 43 64 l-1 65 57 50
c44 39 82 60 165 92 99 38 130 59 113 76 -4 4 -20 -1 -36 -10 -31 -19 -145
-27 -168 -13 -10 6 -7 16 14 44 l27 37 -42 -40 c-54 -50 -68 -75 -50 -86 9 -5
5 -10 -15 -15 -40 -10 -53 8 -31 43 33 51 154 165 166 157 7 -4 9 -3 6 3 -4 6
0 13 8 17 11 4 15 -1 15 -17 0 -18 2 -19 10 -7 16 24 12 50 -7 49 -10 0 -43
-14 -73 -30z m-129 -73 c5 3 9 0 9 -6 0 -15 -23 -7 -26 8 -1 7 0 8 3 2 2 -5 9
-8 14 -4z m-88 -37 c-17 -17 2 -90 28 -110 20 -15 21 -19 7 -19 -10 0 -28 10
-39 21 -16 16 -20 29 -16 55 7 40 -6 37 -28 -7 -22 -42 0 -94 47 -108 26 -7
28 -9 10 -10 -13 -1 -32 3 -42 9 -17 9 -40 58 -40 86 0 14 67 94 78 94 3 0 1
-5 -5 -11z m-63 -256 c0 -4 -19 -27 -42 -50 -37 -37 -48 -43 -84 -43 -24 0
-46 5 -49 10 -4 6 -16 8 -28 5 -19 -5 -19 -4 3 9 26 16 55 22 31 7 -11 -7 -9
-10 7 -15 24 -8 116 34 93 42 -9 3 -2 11 20 23 37 20 49 23 49 12z m-116 -52
c6 -10 -24 -25 -32 -16 -3 3 1 5 9 5 11 0 11 2 -1 10 -13 8 -13 10 2 10 9 0
19 -4 22 -9z m353 -44 c0 -8 -6 -14 -14 -14 -9 0 -10 4 -2 14 6 7 12 13 14 13
1 0 2 -6 2 -13z m-151 -156 c16 -10 13 -11 -21 -7 -22 3 -47 6 -56 6 -17 0
-59 35 -59 50 0 9 102 -28 136 -49z m-333 -96 c-9 -19 -18 -33 -21 -31 -4 5
26 66 33 66 3 0 -3 -16 -12 -35z"/>
<path d="M685 869 c-4 -6 -5 -12 -2 -15 2 -3 7 2 10 11 7 17 1 20 -8 4z"/>
<path d="M2384 775 c-28 -28 -30 -47 -8 -69 43 -43 75 -42 99 5 21 39 19 54
-7 66 -48 23 -59 23 -84 -2z"/>
<path d="M3370 780 c-37 -37 -19 -87 36 -104 32 -10 69 37 65 82 -1 11 -57 42
-76 42 -3 0 -14 -9 -25 -20z"/>
<path d="M2967 763 c-8 -16 -19 -57 -26 -93 -6 -36 -26 -122 -43 -192 -35
-139 -34 -144 25 -175 38 -19 45 -11 58 68 7 47 17 72 37 92 28 30 61 51 68
45 2 -2 -6 -39 -17 -81 -23 -85 -21 -95 32 -122 23 -13 34 -13 74 -1 25 8 52
20 60 26 23 19 19 65 -7 82 -20 13 -26 13 -57 -6 -26 -15 -33 -16 -29 -6 3 8
18 52 34 98 l29 83 -33 30 c-18 16 -38 29 -44 29 -7 0 -39 -28 -71 -62 l-59
-63 6 35 c6 34 23 72 62 138 l19 33 -37 34 c-45 42 -63 44 -81 8z"/>
<path d="M1376 741 c-48 -7 -64 -29 -50 -68 6 -15 16 -27 22 -25 16 3 16 -5
-14 -155 -15 -72 -24 -139 -21 -147 6 -15 64 -56 79 -56 10 0 28 69 28 110 l1
35 22 -30 c36 -49 108 -115 126 -115 26 0 58 27 63 54 6 32 2 37 -59 65 -29
14 -60 32 -68 42 -15 15 -14 17 12 24 117 29 170 129 108 203 -42 50 -153 79
-249 63z m164 -105 c28 -35 -10 -87 -74 -102 l-28 -7 7 44 c11 75 14 79 49 79
19 0 39 -7 46 -14z"/>
<path d="M961 718 c-9 -25 -8 -21 -47 -226 -25 -135 -26 -144 -9 -162 9 -10
30 -23 46 -29 37 -13 36 -16 59 136 10 65 18 110 19 100 0 -10 14 -53 31 -95
38 -99 111 -173 138 -139 5 7 17 64 26 127 9 63 25 147 36 185 l21 70 -33 28
c-45 38 -65 35 -77 -10 -11 -40 -29 -148 -33 -198 -3 -24 -11 -9 -37 70 -46
135 -116 206 -140 143z"/>
<path d="M2117 733 c-91 -3 -98 -5 -108 -27 -13 -29 2 -63 30 -68 18 -3 17 -9
-11 -146 -28 -135 -28 -145 -13 -162 9 -10 30 -23 46 -29 27 -9 31 -8 39 15 6
14 10 35 10 47 0 12 3 39 6 60 l7 37 58 0 c78 0 112 36 77 82 -11 13 -22 15
-63 8 -27 -4 -51 -6 -53 -5 -2 2 0 24 3 48 l7 46 57 6 c31 3 65 7 76 8 16 2
20 9 20 42 l0 40 -45 1 c-25 0 -89 -1 -143 -3z"/>
<path d="M2683 641 c-47 -22 -103 -91 -103 -128 0 -29 35 -63 90 -88 47 -21
50 -32 13 -46 -22 -8 -30 -7 -40 7 -7 10 -13 21 -13 26 0 16 -51 7 -70 -12
-26 -26 -25 -42 3 -67 50 -46 122 -50 198 -12 79 40 79 79 -1 126 -102 59 -99
54 -58 99 l36 39 7 -38 c6 -32 11 -37 35 -37 33 0 60 23 60 51 0 26 -59 87
-90 94 -14 3 -43 -3 -67 -14z"/>
<path d="M3336 639 c-14 -11 -31 -30 -37 -42 -10 -18 -8 -24 16 -43 31 -25 31
-32 -6 -131 -27 -71 -23 -85 29 -116 26 -16 37 -16 73 -7 89 24 112 64 65 109
l-25 23 -32 -23 c-30 -21 -32 -21 -25 -3 4 10 17 56 29 101 l22 82 -25 26
c-40 43 -55 47 -84 24z"/>
<path d="M3590 647 c-14 -7 -31 -24 -39 -39 -15 -26 -14 -29 13 -57 l28 -29
-31 -81 c-35 -92 -33 -108 21 -134 42 -20 53 -11 67 61 9 48 19 66 56 102 24
24 47 41 51 38 3 -4 -4 -41 -16 -82 -25 -83 -22 -94 30 -121 30 -16 84 -6 127
22 32 21 31 67 -2 89 -23 15 -26 15 -51 -5 -15 -12 -28 -20 -30 -19 -1 2 12
44 29 95 31 91 31 91 12 113 -48 53 -71 48 -135 -32 l-41 -52 2 42 c4 63 -46
111 -91 89z"/>
<path d="M4084 650 c-57 -23 -116 -127 -130 -230 -5 -40 -3 -48 21 -73 37 -36
68 -34 138 9 32 20 61 33 64 30 4 -3 4 -8 2 -9 -2 -2 -38 -28 -79 -59 -129
-94 -161 -144 -124 -196 51 -73 177 -66 210 13 17 41 46 172 73 325 22 128 20
134 -42 166 -24 13 -28 13 -33 -1 -5 -12 -11 -11 -36 10 -32 27 -33 28 -64 15z
m83 -92 c21 -27 -11 -89 -71 -136 -44 -34 -56 -29 -45 19 18 78 51 129 84 129
12 0 27 -6 32 -12z m-27 -330 c-28 -76 -44 -96 -66 -82 -10 6 -20 16 -22 22
-3 11 98 126 105 118 2 -2 -5 -28 -17 -58z"/>
<path d="M2331 624 c-27 -35 -26 -50 5 -77 l25 -22 -32 -82 c-17 -45 -29 -88
-26 -97 25 -64 172 -62 207 4 23 42 -30 91 -69 64 -12 -9 -25 -14 -27 -11 -3
3 4 35 15 72 28 88 27 126 -2 153 -32 30 -71 28 -96 -4z"/>
<path d="M1770 551 l-75 -6 -3 -31 c-5 -50 12 -57 130 -47 l103 8 3 28 c2 16
-2 35 -9 43 -12 14 -19 15 -149 5z"/>
</g>
</svg>
