<svg width="774" height="435" fill="none" xmlns="http://www.w3.org/2000/svg"><path d="M214.667 68.667C172 76.4 131.467 101.733 104.4 137.333 90.267 156 76.267 187.6 72.667 208.933l-.934 5.6-7.2.934C55.6 216.533 36 215.2 23.6 212.533c-5.067-1.066-9.867-1.866-10.8-1.866-2.267 0-6.4 17.6-4.4 18.933 4.133 2.533 36.667 6.533 50.267 6.267l10-.267.4 8.8.4 8.933h-3.734c-2 0-7.866-.933-13.066-2-5.067-1.066-10-2-10.8-2-1.6 0-6.534 17.067-5.334 18.267 1.2 1.333 16 4.267 25.2 5.2 9.867.933 10.667 1.6 12.134 10.133.8 4.4.533 5.067-1.6 5.067-2 0-3.067 1.733-4.8 7.733-1.2 4.267-2.134 8.4-2.134 9.334 0 2 7.734 4 23.067 6l12.267 1.733 1.866 7.6c1.6 6.667 2.134 7.6 5.067 7.6 2.4 0 3.067-.533 2.533-2.4-.4-1.2-1.066-4.4-1.466-7.2l-.934-4.8 9.2-.533c4.934-.267 9.467-.267 10.134 0 .533.266.933 6 .933 12.8 0 10.8 2.533 31.066 4.8 38.4.667 2.266 4.533 3.333 6.133 1.733.267-.4-.4-5.6-1.733-11.733-1.467-6-2.933-18-3.333-26.534l-.934-15.6 5.2-.8c12.534-2.133 33.2-7.6 42.8-11.2 23.2-9.066 47.467-25.6 66-45.333 18.667-19.867 32.267-42.533 40.934-68.8 4.266-12.667 8.666-34.8 7.333-36.8-.4-.667-2.4-1.2-4.533-1.2-2.134 0-4.4-.8-4.934-1.867-.933-1.733-2.8-1.6-13.733.534-6.933 1.333-12.8 2.266-13.067 2-.133-.134 1.2-5.867 3.067-12.8 1.733-6.934 3.467-15.6 3.6-19.2.4-6.534.267-6.667-3.6-7.067-2.133-.267-4.533-1.333-5.333-2.4-1.067-1.6-3.2-1.467-14 .8-6.934 1.467-12.667 2.4-12.8 2.267-.134-.134 1.066-5.6 2.933-12.134 1.733-6.533 3.467-15.333 4-19.733l.933-7.733h-4.8c-2.933 0-4.933-.8-5.466-2-.4-1.067-1.2-2-1.734-1.867-.533 0-5.6.933-11.066 1.867zm2.666 7.866c0 3.734-6.533 27.334-10 36.267-15.466 39.067-48.533 72.933-87.6 89.333-11.733 5.067-32.933 11.2-38.266 11.2-2.8 0-3.067-.4-2.267-5.066 1.867-9.734 7.867-27.734 12.933-38.4C114.4 123.6 154.267 90.8 204.933 77.333c11.334-3.066 12.4-3.066 12.4-.8zm27.2 47.867c-9.6 45.6-38.933 85.333-80.666 109.333-13.334 7.6-44.8 18.267-54 18.267-3.334 0-3.334.133 1.2-15.867 2.666-9.466 3.066-10 8.133-12 29.6-11.466 59.067-32.266 76.933-54.533 10.534-13.067 15.734-21.333 24.4-38.133l6.8-13.467 8.667-2.133c4.8-1.2 9.067-1.867 9.6-1.334.533.4 0 4.934-1.067 9.867zm29.334 37.2c-10.267 48.8-40.667 89.067-84.4 112.133-12.934 6.8-36.134 14.934-46.667 16.4-7.6.934-7.333 2.667-2.667-15.466l2.667-10 8.267-3.2c43.2-16.534 77.466-48.4 98.4-91.2l6.666-13.6 8.934-2.134c4.933-1.2 9.333-2 9.733-1.733.533.267.133 4.267-.933 8.8zm-170 77.333c-1.467 5.2-2.534 10.667-2.534 11.867 0 1.867-1.6 2.533-6.933 3.2-3.867.533-9.467.667-12.4.4l-5.333-.4-.4-9.6c-.4-9.2-.267-9.733 2.666-10.267 1.734-.266 7.334-1.466 12.4-2.533 5.2-1.067 10.667-2 12.134-2.133l2.933-.134-2.533 9.6zm30.8 30.667c-.134.933-1.2 6.267-2.534 11.733-2.8 11.334-3.066 11.6-17.6 11.867-10.133.133-10.533-.267-10.533-12.267 0-7.333.4-7.733 16-10.666 13.2-2.534 14.667-2.534 14.667-.667zM98.4 283.067c.4 10 .8 9.733-10.8 8.133-5.733-.8-6.133-1.2-6.933-5.733-.4-2.667-1.2-6.134-1.6-7.734-.667-2.8-.134-2.933 7.866-3.333 4.534-.267 9.067-.4 9.734-.4.8.133 1.466 4.267 1.733 9.067zM303.333 237.6c-.933 2.933-4.666 22.533-4.666 24.533 0 1.067.8 1.867 1.866 1.867.934 0 2.267-2.4 2.934-5.733 1.066-5.334 1.466-5.6 6.266-6 6.134-.534 6.534-2.667.667-3.2-3.6-.267-4.267-.934-4-3.067.8-5.333 1.6-6 6.933-6 3.867 0 5.334-.533 5.334-2 0-2.533-14.4-2.933-15.334-.4zM323.6 238c-1.067 2.533 1.733 4.133 3.2 1.867 1.733-2.667 1.467-3.867-.667-3.867-1.066 0-2.133.933-2.533 2zM353.333 238.933c-1.2 2.934-5.333 22.534-5.333 25.334 0 .666.667 1.066 1.6.8.8-.267 2.533-4 3.6-8.4 3.733-13.867 11.067-13.867 8.133 0-1.6 7.6-1.333 9.6 1.067 8.133 1.733-1.067 4.8-17.6 3.6-19.467-.667-1.066-2.8-1.333-5.6-.933l-4.667.8.8-4.533c1.067-5.334-1.2-6.4-3.2-1.734zM375.467 238.133c-1.2 2.934-1.067 3.2 1.2 3.2 1.066 0 2-1.2 2-2.666 0-3.2-2-3.6-3.2-.534zM562.667 238.933c-1.6 1.734-3.734 4.134-5.067 5.467-1.733 1.867-1.867 2.667-.533 3.467 1.2.8 1.333 2.666.133 8.533-1.467 7.467-.933 10.8 1.333 8.133.534-.666 1.734-4.533 2.667-8.666 1.2-6 2.267-7.734 4.533-8.4 2.8-.8 2.8-.934.667-2.667-3.2-2.4-3.067-3.333.933-4.8 1.867-.667 3.334-1.867 3.334-2.667 0-2.4-5.334-1.333-8 1.6zM492.533 251.333c-2.266 11.2-2.4 14-.933 14 .933 0 1.733-.8 1.733-1.866 0-2.134 5.067-8.8 6.667-8.8.533 0 1.467 2.4 2 5.333.533 3.333 1.6 5.333 2.8 5.333 2.267 0 2.4-3.466.4-9.2-1.333-3.733-1.2-4.666 1.333-7.333 1.467-1.6 2.8-3.333 2.8-3.867 0-1.866-2.133-.8-7.2 3.734-2.8 2.666-5.466 4.533-5.733 4.266-.267-.4.133-3.2.8-6.4 1.867-7.733 1.733-9.2-.267-9.2-1.066 0-2.666 4.8-4.4 14zM515.467 248.933c-1.334 6.534-2.534 12.8-2.934 14-.4 1.6 0 2.4 1.2 2.4 1.334 0 2.667-3.066 4.134-9.733 3.866-17.867 4-18.267 1.866-18.267-1.466 0-2.666 3.2-4.266 11.6zM617.867 240.933c.4 2.134 1.066 8.4 1.6 14 .666 8.934 1.2 10.4 3.333 10.4 1.867 0 4.267-3.6 9.2-13.333 3.6-7.333 6.667-13.6 6.667-14 0-.4-.8-.667-1.734-.667-1.066 0-4.133 4.934-6.933 10.934-4.8 10.666-5.067 10.933-6 7.066-.533-2.266-1.067-7.2-1.2-11.066-.133-6.134-.533-6.934-2.933-6.934-2.267 0-2.667.667-2 3.6zM642.667 239.333c0 1.067.933 2 2 2 1.066 0 2-.933 2-2 0-1.066-.934-2-2-2-1.067 0-2 .934-2 2zM418 241.333c-1.333 1.467-4 2.667-6 2.667-4.533 0-7.067 2.8-6.4 7.067.133 1.733-.4 4.266-1.467 5.466-.933 1.2-1.466 3.334-1.066 4.8.4 1.467.133 3.067-.534 3.467-2.533 1.6-1.2 6 2.4 7.333 4.534 1.734 10.134.4 13.2-2.933 3.334-3.733 1.067-7.067-5.6-7.867-3.466-.4-5.333-1.466-5.6-3.066-.4-1.867.534-2.267 4.934-2.267 4.266 0 5.866-.667 7.466-3.2 1.734-2.667 1.867-3.867.667-6.267-1.467-2.533-1.2-3.333 1.467-5.333 2.4-1.867 2.666-2.533 1.066-2.533-1.2 0-3.2 1.2-4.533 2.666zm-1.467 6.534c1.467 2.4-.8 5.466-4 5.466-2.266 0-3.2-.8-3.2-2.4 0-1.333.4-2.933.934-3.333 1.2-1.333 5.466-1.067 6.266.267zm-2.666 16.933c4.666 1.733 1.466 5.867-4.534 5.867-2.8 0-5.866-3.334-4.666-5.334.933-1.466 5.866-1.733 9.2-.533zM440 240.667c0 1.2-.8 2.4-1.733 2.666-1.067.534-1.6 4-1.6 11.067 0 9.6.133 10.267 3.066 10.667 3.067.533 4.4-3.067 1.467-4-1.067-.4-1.333-2.534-.667-6.8.8-4.934 1.467-6.267 3.6-6.267 1.334 0 2.534-.933 2.534-2s-.934-2-2.134-2c-1.466 0-1.866-.8-1.2-2.667.667-1.866.267-2.666-1.2-2.666-1.2 0-2.133.933-2.133 2zM673.333 240.533c0 .934-.8 2.4-1.6 3.2-1.2.934-1.733 5.067-1.733 11.867 0 9.733.133 10.4 3.067 10.8 2 .267 2.933-.267 2.933-1.6 0-1.2-.533-2.133-1.333-2.133-1.734 0-1.734-6.8 0-11.2C675.333 249.6 676.8 248 678 248c2.667 0 2.533-2.133-.133-3.2-1.334-.533-1.734-1.733-1.2-3.467.666-1.866.266-2.666-1.2-2.666-1.2 0-2.134.8-2.134 1.866zM322.133 245.6c-1.733 5.733-3.733 18.667-2.933 19.333 1.6 1.734 3.2-1.733 5.2-11.333 1.6-8.133 1.6-9.6 0-9.6-.933 0-2 .8-2.267 1.6zM332 245.867c-2.667 3.333-1.067 8 3.733 10 2.267 1.066 4.267 2.666 4.267 3.6 0 2.266-5.333 3.733-7.067 2-.8-.8-2.666-1.467-4.133-1.467-2.667.133-2.667.133.4 2.667 3.867 3.333 9.733 3.466 12.533.266 3.467-3.733 2.667-6.8-2.4-9.733-6.8-4-6.266-7.2.934-6 4.8.8 5.333.667 3.733-1.2-2.133-2.533-9.867-2.667-12-.133zM374.133 245.6c-3.466 11.2-4.266 20.267-1.866 19.467 1.466-.534 4.933-13.067 5.066-18.8 0-2.534-2.533-3.067-3.2-.667zM384.667 245.6c-.4.933-1.467 5.733-2.534 10.667-1.466 7.466-1.466 9.066 0 9.066 1.734 0 2.134-1.066 3.867-8.666 1.2-5.467 4.267-10 6.933-10 1.734 0 2 1.2 1.334 6.933-.4 3.867-1.067 8.133-1.6 9.333-.667 1.734-.267 2.4 1.066 2.4 2.267 0 5.467-12.133 4.667-17.6-.4-3.466-5.467-4.8-8.533-2.4-1.334 1.2-1.867 1.2-1.867.134 0-2-2.667-1.867-3.333.133zM452.533 245.867c-3.2 2.4-1.333 4.533 2.134 2.4 3.6-2.134 6.266-2 7.2.533.4 1.2.8 2.267.8 2.533 0 .134-2.534.667-5.6 1.2-7.067 1.2-9.067 2.8-9.067 7.734 0 4.666 2.933 6.133 8.133 4.133 2.134-.933 3.867-.933 3.867-.267 0 .667.8 1.2 1.733 1.2 2.4 0 5.334-15.466 3.467-18.8-1.6-3.066-8.8-3.466-12.667-.666zm8.8 9.866c0 2.134-4.266 6.934-6.133 6.934-2.667 0-3.867-3.6-1.867-6 1.734-2 8-2.8 8-.934zM476.267 244.933c-4.4 1.734-7.067 12.667-4.267 17.867 1.733 3.067 8.267 3.467 11.2.4 4-3.867 2.133-6.267-1.867-2.533-3.2 2.933-6.666 1.2-6.666-3.334 0-7.866 4.666-12.533 8.533-8.533 3.2 3.067 5.2 1.733 2.8-1.867-2-2.8-5.867-3.6-9.733-2zM528.4 246c-3.867 2.667-6.4 11.6-4.4 15.333 2.133 3.867 6 5.6 9.733 4.134 3.867-1.467 5.467-3.6 4.267-5.6-.667-.934-1.867-.534-3.6.933-3.067 2.8-7.067 1.2-7.067-2.933 0-2.134 1.2-2.667 7.067-2.934 7.6-.4 8.8-2.266 4.8-8-2.4-3.466-6.667-3.733-10.8-.933zm8.667 4.267c.4 2.666-.134 3.066-3.6 3.066-4.667 0-6.4-2-4-4.8 2.4-2.933 7.066-1.866 7.6 1.734zM573.733 246c-4.4 3.067-6.533 12-3.866 16 4.666 7.2 12.8 4.667 15.733-4.8 1.333-4.533 1.2-6.133-.4-9.067-2.267-4.133-7.333-5.066-11.467-2.133zm8.134 7.733c-.267 6.4-3.467 10.267-6.934 8-2.666-1.733-2.8-8.666-.133-11.866.933-1.067 2.933-1.867 4.4-1.6 2.267.266 2.8 1.333 2.667 5.466zM594.133 245.333c-.4 1.067-1.6 6-2.666 10.934-1.334 7.066-1.467 9.066-.134 9.066.934 0 2.4-3.2 3.467-7.066 1.333-4.8 2.8-7.334 4.8-8.267 3.067-1.333 5.067-4.4 3.733-5.733-.4-.4-1.733.266-2.933 1.466-2 2-2.267 2-3.867-.133-1.466-2-1.733-2-2.4-.267zM652.667 247.2c-6.4 6.4-5.6 17.2 1.466 18.933 4.134 1.067 10.934-4.266 8.534-6.666-1.067-1.067-1.867-.8-2.8.8-1.867 3.466-6.267 3.066-7.2-.667-1.067-3.867 1.333-10.133 4-11.067 1.2-.533 3.2.134 4.533 1.334 2.8 2.666 4.133 2.666 4.133.4 0-2.534-4.4-6.267-7.2-6.267-1.2 0-3.733 1.467-5.466 3.2zM685.2 247.867c-8.4 8.4-2.8 21.866 7.467 18 5.866-2.267 8.133-16.267 3.066-19.734-4.266-2.933-6-2.666-10.533 1.734zm9.2 5.066c.533 5.867-1.867 10-5.467 9.467-2.266-.267-3.066-1.467-3.333-4.667-.533-5.866 1.867-10 5.467-9.466 2.266.266 3.066 1.466 3.333 4.666zM712.267 246.133c-1.6 1.067-2.934 1.334-2.934.667 0-.8-.8-1.467-1.733-1.467-1.467 0-4.933 14.267-4.933 20.134 0 3.466 3.733-1.867 4.4-6.267.933-5.2 4.266-9.867 7.2-9.867.933 0 1.733-1.2 1.733-2.666 0-3.2 0-3.2-3.733-.534zM640.667 248.267c-2.667 11.733-3.334 16.133-2.534 17.2 1.467 2.4 3.067-.267 4.534-7.867.8-4.133 1.866-8.667 2.133-10 .533-1.467 0-2.267-1.333-2.267-1.2 0-2.4 1.334-2.8 2.934zM720.933 254.8c2.267 10.8 1.067 15.867-3.6 15.867-1.466 0-2.666.666-2.666 1.466 0 .8 1.6 1.2 3.733.934 3.067-.4 4.533-2.267 10.667-14.134 3.866-7.466 6.4-13.6 5.733-13.6-.8 0-2.933 3.067-4.933 6.934-3.867 7.6-5.867 6.933-5.867-2 0-3.867-.533-4.934-2.533-4.934-2.4 0-2.4.4-.534 9.467zM752.533 284c-3.733 1.467-7.2 6.4-7.2 10.133 0 1.6 1.2 4.4 2.8 6.4 3.334 4.267 11.734 4.934 14.667 1.067 1.467-1.867 1.467-2-.133-.667-2.667 2.534-9.867 2.134-12.4-.666-3.334-3.734-3.467-9.6-.134-12.8 2.667-2.8 9.734-2.667 12.8.133 2.134 1.867 2.4 1.867 1.734.133-.8-1.866-6.267-5.2-8.4-4.933-.534 0-2.267.533-3.734 1.2zM234.8 288c-2.4.533-6.133 2.8-8.133 4.933-2.667 2.8-32.8 50.134-45.867 72-.667 1.334 2 1.734 12.133 1.734h13.2l4.667-8 4.533-8 14.667.266 14.667.4 1.333 7.334 1.333 7.333h25.334l-.267-3.333c-.267-1.867-3.467-18-7.333-36-5.067-23.867-7.734-33.334-9.734-35.6-3.066-3.467-13.066-4.934-20.533-3.067zm4.4 25.067c.267.533 1.067 5.333 1.467 10.666l1.066 9.6H234.4c-4 0-7.6-.4-8-.8-.933-.8 9.867-20.533 11.2-20.533.533 0 1.2.4 1.6 1.067zM710 287.867c-2.133.533-5.333 1.866-6.8 2.8-2.267 1.466-39.467 59.333-46.933 72.8l-1.734 3.2H680l4.933-8 5.067-8 14.533.266 14.667.4 1.333 7.334L722 366l13.2.4 13.067.4-.934-3.733c-2.533-10.134-10.133-45.2-12-56.134-2.8-15.333-5.2-18.4-14.666-19.466-3.6-.267-8.4-.134-10.667.4zm5.467 37.333.933 8.133h-7.6c-4.267 0-7.467-.533-7.467-1.333 0-1.733 3.2-8.133 7.734-15.333 3.066-4.934 3.333-5.067 4.4-2.4.533 1.6 1.466 6.533 2 10.933zM285.333 323.867c-3.866 19.6-6.666 36.8-6.266 38 1.6 4.266 7.2 4.933 38 4.133 16.533-.4 30.4-.933 30.666-1.333.267-.267 1.334-4.134 2.267-8.534l1.733-8.133-14.933-.267c-30.533-.533-30.133-.533-30.133-3.466 0-2.134 8.4-46.267 10.266-53.334.667-2.933.534-2.933-11.866-2.933H292.4l-7.067 35.867zM367.333 290.933c-.4 1.734-3.6 17.734-7.2 35.734-4.533 22.4-6.133 33.466-5.333 35.466 1.6 4.267 5.467 4.667 39.2 4.267l29.2-.4 1.733-8c.934-4.4 1.6-8.4 1.734-9.067 0-.533-9.2-.933-20.4-.933-14.267 0-21.067-.533-22.667-1.733-2.133-1.467-2-3.467 3.467-30L392.8 288h-12.4c-11.733 0-12.4.133-13.067 2.933zM421.333 290c0 2.133 11.467 58.667 13.467 66.267 2 7.6 6.533 10.4 16.8 10.4 14.133 0 15.733-1.467 32-28.667 4.4-7.333 13.2-21.467 19.467-31.333l11.466-18-12.933-.4c-11.6-.4-13.067-.134-14.933 2.4-1.067 1.466-8 13.733-15.334 27.333-7.333 13.467-14 24.667-14.8 24.667-1.466 0-6.4-28.4-8-45.734L447.6 288h-13.067c-10.666 0-13.2.4-13.2 2zM519.067 290.667c-5.067 2.933-5.067 3.2-12.4 38.8-6 29.066-6.267 32.133-3.2 34.666 2.4 2 59.6 3.2 62.933 1.334 1.867-1.067 5.333-11.2 5.6-15.734 0-1.2-5.467-1.733-20.933-2-20.934-.4-21.067-.4-21.467-3.6-.267-1.6-.133-4.533.267-6.266.8-3.2.933-3.2 20.266-3.2 10.667 0 20.4-.534 21.734-1.334 1.333-.666 2.933-3.466 3.333-6 .533-2.666 1.333-5.733 1.733-6.8.534-1.6-2.666-1.866-20.8-1.866h-21.466v-3.2c0-1.734 1.066-4.4 2.4-6 2.133-2.534 3.733-2.8 22.8-3.067l20.666-.4 1.6-7.333c.934-4 1.734-8.134 1.867-9.067 0-1.2-6.933-1.6-30.267-1.6-27.733 0-30.8.267-34.666 2.667zM611.333 289.2c-10 2.533-18.8 10.267-23.333 20.667-6.667 15.6-8.667 39.466-4 47.066 4.8 7.867 8.667 8.934 34.533 9.467 23.734.533 31.467-.4 34.8-4.4 1.6-1.867 7.867-28.933 8-34.4 0-2-1.466-2.267-12-2.267-8.533 0-12.266.534-12.666 1.6-.267.934-1.2 5.067-2 9.067s-2 8.267-2.667 9.333c-1.6 2.667-17.333 2.8-20.4.134-7.867-6.4-3.333-28.667 7.067-35.867 4.133-2.667 5.866-2.933 24.133-2.933 22 0 21.333.266 23.067-9.734.533-2.8 1.333-6 1.733-7.066.533-1.6-3.333-1.867-25.733-1.734-14.667.134-28.267.534-30.534 1.067z" fill="#069D27"/><path d="M752.933 288.8c-1.466 1.467-1.066 11.2.4 11.2.8 0 1.334-1.2 1.334-2.667 0-3.2 2.133-3.466 3.733-.533.933 1.6 1.2.8 1.067-2.933-.134-4.134-.667-5.334-2.8-5.6-1.6-.267-3.2 0-3.734.533zm5.467 2.933c.267.934-.4 1.6-1.6 1.6-1.2 0-2.133-.933-2.133-2.133 0-2.267 2.933-1.867 3.733.533z" fill="#069D27"/></svg>