<svg xmlns="http://www.w3.org/2000/svg" width="1920" height="488" style="shape-rendering:geometricPrecision;text-rendering:geometricPrecision;image-rendering:optimizeQuality;fill-rule:evenodd;clip-rule:evenodd"><path style="opacity:.989" fill="#00c600" d="M878.5-.5h323c18.91 3.363 36.58 10.197 53 20.5 184.69.009 369.36.675 554 2 62.41 14.239 99.41 52.739 111 115.5v33c-12.87 62.373-50.54 100.54-113 114.5-6.64.887-13.31 1.554-20 2l-532 1c-15.55 10.27-32.55 16.937-51 20a1365.425 1365.425 0 0 1-68 2c-24.18 45.364-62.35 67.197-114.5 65.5-30.87 1.406-53.203-11.594-67-39a76.961 76.961 0 0 1-4.5-27c-25.362.41-50.695-.09-76-1.5-18.452-3.063-35.452-9.73-51-20l-690-1C70.25 282.485 27.75 251.318 5 193.5a500.224 500.224 0 0 1-5.5-23v-33C11.092 74.739 48.092 36.239 110.5 22c237.309-1.327 474.642-1.993 712-2 17.277-10.923 35.944-17.756 56-20.5z"/><path style="opacity:1" fill="#010201" d="M977.5 288.5c.543-.06.876-.393 1-1-30.326-1-60.659-1.333-91-1-22.705-1.686-43.038-9.519-61-23.5a764.443 764.443 0 0 1-46.5-46.5c-12.746-13.83-19.746-30.164-21-49-4.197-24.864.803-47.531 15-68A1009.719 1009.719 0 0 1 826.5 45c16.152-12.91 34.485-20.577 55-23 104.333-.667 208.67-.667 313 0 19.06 2.352 36.4 9.018 52 20 15.8 14.804 31.3 29.97 46.5 45.5 23.23 24.898 31.23 54.232 24 88-3.37 16.414-10.71 30.747-22 43a667.531 667.531 0 0 1-43.5 43.5c-17.13 14.049-36.8 22.049-59 24l-71 1c-4.79 9.74-9.95 19.24-15.5 28.5-15.02 19.099-34.52 30.933-58.5 35.5a262.044 262.044 0 0 1-42 1c-24.093-6.668-34.926-22.501-32.5-47.5a237.524 237.524 0 0 0 4.5-16z"/><path style="opacity:1" fill="#004a00" d="M121.5 43.5a56976.407 56976.407 0 0 1 675 0c-.124.607-.457.94-1 1-224.499-1-449.166-1.333-674-1z"/><path style="opacity:1" fill="#000100" d="M121.5 43.5c224.834-.333 449.501 0 674 1a1333.493 1333.493 0 0 1-30.5 31c-12.005 13.003-20.672 28.003-26 45-10.747 44.674-.747 83.674 30 117l26.5 26.5c-224 .667-448 .667-672 0-43.327-6.339-74.494-29.172-93.5-68.5-17.17-48.81-7.004-90.977 30.5-126.5 17.659-14.833 37.992-23.333 61-25.5z"/><path style="opacity:1" fill="#fdfdfd" d="M960.5 53.5a786.65 786.65 0 0 1 68 1.5c1.9 1.808 2.4 3.975 1.5 6.5-7.98 17.314-20.15 30.814-36.5 40.5a99.62 99.62 0 0 1-25 7c-28.395.025-56.728.691-85 2L849 145.5c-1.949 5.64-1.949 11.307 0 17l31.5 31.5a31.041 31.041 0 0 0 8 4l151 1c-4.87 14.617-12.87 27.617-24 39-8.96 7.549-19.292 12.215-31 14a1290.19 1290.19 0 0 1-99 1c-15.878-1.733-29.878-7.733-42-18L807 198.5a80.903 80.903 0 0 1-16-26c-.667-13-.667-26 0-39 3.067-7.805 7.401-14.805 13-21L847.5 69c9.874-7.184 20.874-11.851 33-14 26.836-.168 53.503-.668 80-1.5z"/><path style="opacity:1" fill="#fdfdfd" d="M1088.5 54.5c35.33-.167 70.67 0 106 .5 12.91 1.621 24.57 6.288 35 14 13.83 13.833 27.67 27.667 41.5 41.5 6.6 6.608 11.6 14.274 15 23 .93 13.723.59 27.389-1 41-3.57 9.488-8.91 17.821-16 25l-34.5 34.5c-13.22 11.272-28.55 17.606-46 19l-83 1a31.84 31.84 0 0 0-7.5 5.5 852.74 852.74 0 0 0-18 35c-9.96 13.901-23.46 22.068-40.5 24.5a240.38 240.38 0 0 1-31 0c-1.78-2.243-2.28-4.743-1.5-7.5l39-72c12.1-23.479 31.26-37.313 57.5-41.5l87-1 6-3c10.17-10.167 20.33-20.333 30.5-30.5 2.32-6.851 1.98-13.517-1-20-10.17-10.167-20.33-20.333-30.5-30.5l-6-3a1037.502 1037.502 0 0 0-90-1c-3.29.616-6.12 2.116-8.5 4.5a1744.913 1744.913 0 0 1-34.5 59.5c-20 .667-40 .667-60 0-1.825-1.466-2.325-3.299-1.5-5.5l51-86c11.2-13.71 25.37-22.71 42.5-27z"/><path style="opacity:1" fill="#000602" d="M1715.5 79.5c28-.167 56 0 84 .5 9.6 8.717 19.1 17.55 28.5 26.5.67 31.333.67 62.667 0 94a475.971 475.971 0 0 1-26.5 25.5 936.301 936.301 0 0 1-86 1c-8.83-8.167-17.67-16.333-26.5-24.5a1167.948 1167.948 0 0 1-1-96c9.06-9.23 18.23-18.23 27.5-27z"/><path style="opacity:1" fill="#fafafa" d="M118.5 81.5c30.335-.167 60.668 0 91 .5a11.529 11.529 0 0 1 4.5 3.5c1.555 4.882 1.888 9.882 1 15-1.167 2.5-3 4.333-5.5 5.5l-78 1a55.61 55.61 0 0 0-12.5 12.5 622.308 622.308 0 0 0 1 70 85.365 85.365 0 0 0 11.5 10.5l78 1c2.5 1.167 4.333 3 5.5 5.5a42.479 42.479 0 0 1 0 13 11.532 11.532 0 0 1-3.5 4.5 1094.033 1094.033 0 0 1-93 1A521.213 521.213 0 0 1 91 199.5a1024.84 1024.84 0 0 1-1-90 1127.127 1127.127 0 0 1 28.5-28z"/><path style="opacity:1" fill="#fcfcfc" d="M292.5 81.5a612.94 612.94 0 0 1 35 .5 4.451 4.451 0 0 1 2 1.5 4434.432 4434.432 0 0 1 60 137c.11 1.874-.556 3.374-2 4.5-8.667.667-17.333.667-26 0l-18-37c-22-.667-44-.667-66 0a11.532 11.532 0 0 0-3.5 4.5 284.708 284.708 0 0 1-14.5 32.5c-8.667.667-17.333.667-26 0-2.58-1.481-3.413-3.648-2.5-6.5a11410.383 11410.383 0 0 1 61.5-137z"/><path style="opacity:1" fill="#fbfbfb" d="M406.5 81.5c32.668-.167 65.335 0 98 .5a440.074 440.074 0 0 1 26.5 23.5 283.13 283.13 0 0 1 1 47c-6 7.333-12.667 14-20 20-2 3.667-2 7.333 0 11l22 30c.875 10.359-3.958 14.359-14.5 12a40.398 40.398 0 0 1-12-1.5l-32-44a121.682 121.682 0 0 0-21.5-1.5l-19.5.5-3.5 3.5-1 38a6.978 6.978 0 0 1-2.5 3.5c-6.892 1.591-13.892 1.924-21 1-2.315-1.109-3.815-2.943-4.5-5.5a4420.29 4420.29 0 0 1 0-133 32.864 32.864 0 0 1 4.5-5zM565.5 81.5c33.002-.167 66.002 0 99 .5l4 2a393.427 393.427 0 0 1 23.5 22.5 345.685 345.685 0 0 1-1 52 285.289 285.289 0 0 1-26.5 23.5c-24.421.019-48.754.686-73 2a6.978 6.978 0 0 0-2.5 3.5 325.63 325.63 0 0 1-2 35 6.978 6.978 0 0 1-3.5 2.5 90.455 90.455 0 0 1-19 0 17.842 17.842 0 0 1-4.5-5.5c-.667-44-.667-88 0-132 1.36-2.523 3.193-4.523 5.5-6z"/><path style="opacity:1" fill="#000502" d="M1373.5 81.5c34.09-.486 68.09.014 102 1.5 8.17 7.5 16.33 15 24.5 22.5.67 17.667.67 35.333 0 53a255.493 255.493 0 0 0-19.5 18.5 30.337 30.337 0 0 1-8 5l-71 1c-1.17 1.167-2.33 2.333-3.5 3.5-.33 11-.67 22-1 33-.77 2.439-2.27 4.273-4.5 5.5-7.11.924-14.11.591-21-1-1.39-1.171-2.23-2.671-2.5-4.5a4400.5 4400.5 0 0 1 0-133c1.02-2.187 2.52-3.854 4.5-5zM1534.5 81.5c32.67-.167 65.34 0 98 .5a229.488 229.488 0 0 1 26.5 24.5c.67 15.667.67 31.333 0 47l-21 21c-.84 3.62-.17 6.954 2 10a503.33 503.33 0 0 1 22 31c.66 3.525-.51 6.359-3.5 8.5-7.23 1.594-14.56 1.928-22 1a1833.798 1833.798 0 0 1-35-46c-13-.667-26-.667-39 0a6.97 6.97 0 0 0-3.5 2.5 401.105 401.105 0 0 0-2 39 7.014 7.014 0 0 1-2.5 3.5c-6.89 1.591-13.89 1.924-21 1-1.17-1.167-2.33-2.333-3.5-3.5-.67-45.333-.67-90.667 0-136 1.4-1.57 2.9-2.904 4.5-4z"/><path style="opacity:1" fill="#00c600" d="M1729.5 104.5c19-.167 38 0 57 .5 4.47 3.465 8.63 7.298 12.5 11.5.67 24.667.67 49.333 0 74a101.553 101.553 0 0 1-12.5 11.5 840.83 840.83 0 0 1-58 0c-3.83-3.833-7.67-7.667-11.5-11.5a1362.44 1362.44 0 0 1 0-74c4.06-4.231 8.23-8.231 12.5-12z"/><path style="opacity:1" fill="#020202" d="M435.5 106.5a574.576 574.576 0 0 1 58 1.5c3.833 2.5 7 5.667 9.5 9.5.942 9.102.609 18.102-1 27a201.284 201.284 0 0 1-10.5 8.5 428.817 428.817 0 0 1-58-1 6.978 6.978 0 0 1-2.5-3.5 342.33 342.33 0 0 1 0-37c1.025-2.187 2.525-3.854 4.5-5zM593.5 106.5c19.669-.167 39.336 0 59 .5a39.314 39.314 0 0 1 10.5 10.5c.95 10.433.617 20.766-1 31a57.217 57.217 0 0 1-9.5 8.5 473.741 473.741 0 0 1-61-1c-1.393-1.171-2.227-2.671-2.5-4.5a400.05 400.05 0 0 1 0-40c1.025-2.187 2.525-3.854 4.5-5z"/><path style="opacity:1" fill="#00c500" d="M1402.5 106.5a614.28 614.28 0 0 1 60 1.5c2.2 2.54 4.7 4.707 7.5 6.5.67 1.333 1.33 2.667 2 4 .67 9 .67 18 0 27-.67 1.333-1.33 2.667-2 4a47.766 47.766 0 0 0-8.5 7.5c-20 .667-40 .667-60 0a11.477 11.477 0 0 1-3.5-4.5c-.67-14-.67-28 0-42 1.4-1.57 2.9-2.904 4.5-4zM1562.5 106.5c19.76-.476 39.43.024 59 1.5 2.83 2.833 5.67 5.667 8.5 8.5.94 9.435.61 18.768-1 28a57.458 57.458 0 0 1-9.5 8.5c-19.76.975-39.42.642-59-1a29.776 29.776 0 0 1-2.5-4.5c-.67-12-.67-24 0-36 1.06-2.159 2.56-3.826 4.5-5z"/><path style="opacity:1" fill="#040404" d="M308.5 117.5c4.075-.101 6.575 1.899 7.5 6l14 32c.896 2.525.396 4.692-1.5 6.5-12 .667-24 .667-36 0-2.369-2.938-2.536-6.104-.5-9.5l12-28c1.026-2.739 2.526-5.072 4.5-7z"/><path style="opacity:1" fill="#008a00" d="M887.5 286.5c30.341-.333 60.674 0 91 1-.124.607-.457.94-1 1l-90-2z"/><path style="opacity:.946" fill="#fefffe" d="M255.5 487.5h-22c-15.03-4.541-22.697-14.708-23-30.5 1.478-22.159 12.812-36.826 34-44 35.497-5.687 50.33 9.147 44.5 44.5-6.368 15.543-17.534 25.543-33.5 30zm-8-56c12.76-2.545 20.427 2.455 23 15-2.842 15.59-12.175 22.757-28 21.5-7.065-2.448-10.731-7.448-11-15 1.575-9.991 6.908-17.158 16-21.5z"/><path style="opacity:.944" fill="#fefffe" d="M1232.5 487.5h-22c-20.34-8.434-27.18-23.434-20.5-45 11.34-24.797 30.51-34.63 57.5-29.5 13.49 5.124 20.49 14.957 21 29.5-1.68 23.34-13.68 38.34-36 45zm-7-56c15.44-2.056 22.61 4.611 21.5 20-6.76 16.297-17.93 20.631-33.5 13-6.55-7.573-6.55-15.073 0-22.5-.33-.333-.67-.667-1-1 3.73-4.177 8.06-7.344 13-9.5z"/><path style="opacity:.931" fill="#fefffe" d="M1385.5 487.5h-14c-6.16-1.164-11.66-3.831-16.5-8-.17-.5-.33-1-.5-1.5a243.79 243.79 0 0 1 11-14.5c4.28 3.559 9.12 5.893 14.5 7 5.25.251 8.75-2.082 10.5-7a14.831 14.831 0 0 0-3-3.5 115.373 115.373 0 0 0-16-6c-5.35-2.834-7.68-7.334-7-13.5 3.82-22.756 17.15-31.923 40-27.5 3.77.977 7.27 2.477 10.5 4.5-1.57 6.276-4.9 11.609-10 16-4.61-3.988-9.78-5.155-15.5-3.5a25.553 25.553 0 0 0-4 4.5 25.553 25.553 0 0 0 4 4.5c22.84 4.758 28.17 17.258 16 37.5-5.78 5.487-12.45 9.154-20 11z"/><path style="opacity:.944" fill="#fefffe" d="M1633.5 487.5h-23c-18.75-8.338-25.58-22.672-20.5-43 10.79-26.315 30.29-36.815 58.5-31.5 18.57 9.047 24.74 23.547 18.5 43.5-6.48 15.474-17.64 25.807-33.5 31zm-8-56c17.24-2.261 24.41 5.072 21.5 22-6.87 13.524-17.37 17.69-31.5 12.5-7.4-7.985-7.9-16.485-1.5-25.5 3.45-3.623 7.28-6.623 11.5-9z"/><path style="opacity:.928" fill="#fefffe" d="M819.5 487.5h-14c-24.629-8.633-31.796-25.3-21.5-50 13.294-21.735 32.127-29.069 56.5-22l1 2.5a677.428 677.428 0 0 1-2.5 17.5c-.29 1.544-.956 2.877-2 4-10.185-10.531-20.518-10.531-31 0-7.656 9.462-7.156 18.295 1.5 26.5 5.004 2.235 10.004 2.569 15 1a239.52 239.52 0 0 1 12-6c-1.623 7.464-2.956 15.298-4 23.5a81.23 81.23 0 0 0-11 3z"/><path style="opacity:.926" fill="#fefffe" d="M1487.5 487.5h-14c-21.22-6.632-28.89-20.465-23-41.5a3.627 3.627 0 0 1-1-1.5c11.77-26.776 31.77-36.442 60-29 .33.667.67 1.333 1 2a648.674 648.674 0 0 0-3.5 20 4.486 4.486 0 0 1-1.5 2c-10.64-10.81-21.14-10.477-31.5 1-5.63 7.792-5.79 15.626-.5 23.5 9.93 5.743 19.26 4.576 28-3.5.33 1 .67 2 1 3-1.33 7.013-2.67 14.013-4 21-3.82.836-7.49 1.836-11 3z"/><path style="opacity:.928" fill="#fefffe" d="M1746.5 487.5h-14c-15.39-4.847-23.72-15.014-25-30.5 2.96-27.132 17.96-41.965 45-44.5 5.61-.394 10.94.606 16 3 .33 1 .67 2 1 3a217.103 217.103 0 0 1-3.5 20c-.41.457-.91.791-1.5 1-10.61-10.71-21.11-10.376-31.5 1-8.42 14.435-4.75 23.769 11 28 6.33-.915 11.83-3.581 16.5-8 1.15 2.606 1.32 5.273.5 8a156.163 156.163 0 0 1-3.5 15c-3.52 2.066-7.19 3.4-11 4z"/><path style="opacity:.933" fill="#fefffe" d="M106.5 413.5h21c.214 1.644-.12 3.144-1 4.5a2018.792 2018.792 0 0 1 4.5 38.5 616.232 616.232 0 0 1 21-42 70.907 70.907 0 0 1 16.5-1 1963.473 1963.473 0 0 1 5.5 42c6.489-13.16 12.989-26.327 19.5-39.5l-1-1c7.158-1.462 14.492-1.962 22-1.5a20.093 20.093 0 0 1-1.5 6 42170.598 42170.598 0 0 1-33.5 65.5c-6.658.5-13.325.666-20 .5a754.06 754.06 0 0 0-5.5-38 569.488 569.488 0 0 0-18.5 38h-21a6603.17 6603.17 0 0 1-8-72z"/><path style="opacity:.934" fill="#fefffe" d="M306.5 413.5a303.07 303.07 0 0 1 40 1.5c9.345 5.555 12.512 13.722 9.5 24.5-3.276 8.444-9.11 14.444-17.5 18a543.607 543.607 0 0 1 16 27 104.718 104.718 0 0 1-25 .5c-3.465-7.48-6.965-14.98-10.5-22.5a114.436 114.436 0 0 0-4.5 23h-20a6028.38 6028.38 0 0 1 12-72zm18 16c8.892-.955 12.059 2.712 9.5 11-3.439 3.871-7.606 4.871-12.5 3 .815-4.71 1.815-9.377 3-14z"/><path style="opacity:.928" fill="#fefffe" d="M372.5 413.5c7.032-.33 14.032.003 21 1-4.096 17.742-7.43 35.409-10 53a121.862 121.862 0 0 0 22 1 119.818 119.818 0 0 0-3 17h-42c4.072-24.214 8.072-48.214 12-72z"/><path style="opacity:.943" fill="#fefffe" d="M422.5 413.5c12.713-.374 25.38.126 38 1.5 16.267 7.734 22.434 20.567 18.5 38.5-4.51 12.52-12.677 22.02-24.5 28.5a30.294 30.294 0 0 1-10 3 204.664 204.664 0 0 1-35-.5 3509.42 3509.42 0 0 0 13-71zm17 17c14.022-1.143 20.522 5.19 19.5 19-3.241 13.41-11.741 19.743-25.5 19a6782.605 6782.605 0 0 0 6-38z"/><path style="opacity:.933" fill="#fefffe" d="M488.5 413.5h21a3574.213 3574.213 0 0 0 2.5 32 25.777 25.777 0 0 0 2 8 498.692 498.692 0 0 0 20-39 38.555 38.555 0 0 1 8.5-1c3.113.062 5.946.729 8.5 2a817.407 817.407 0 0 0 5.5 40 1870.083 1870.083 0 0 1 19.5-41c7.109-1.312 14.276-1.312 21.5 0a2423.356 2423.356 0 0 1-35 70c-6.89 1.311-13.723 1.311-20.5 0a1306.174 1306.174 0 0 0-6-35 1956.753 1956.753 0 0 0-18.5 35.5c-6.992.5-13.992.666-21 .5l-8-72z"/><path style="opacity:.928" fill="#fefffe" d="M602.5 413.5h20a1392.018 1392.018 0 0 1-12 72h-20a3131.407 3131.407 0 0 1 12-72z"/><path style="opacity:.938" fill="#fefffe" d="M635.5 413.5c12.713-.374 25.38.126 38 1.5 16.886 7.939 23.053 21.106 18.5 39.5-5.826 16.488-17.326 26.654-34.5 30.5-11.328.5-22.662.667-34 .5a3147.766 3147.766 0 0 0 12-72zm17 17c16.052-.125 22.219 7.541 18.5 23-4.009 11.11-12.176 15.776-24.5 14a481.634 481.634 0 0 0 6-37z"/><path style="opacity:.93" fill="#fefffe" d="M709.5 413.5a441.814 441.814 0 0 1 42 1 287.339 287.339 0 0 1-4 15.5c-6.992.5-13.992.666-21 .5a49.299 49.299 0 0 0-2 11h20a114.948 114.948 0 0 1-2 17 242.43 242.43 0 0 0-22 .5c.765 2.836.432 5.67-1 8.5 6.968.997 13.968 1.33 21 1a66.596 66.596 0 0 1-2 17 441.814 441.814 0 0 1-42-1 3130.168 3130.168 0 0 1 13-71z"/><path style="opacity:.931" fill="#fefffe" d="M852.5 413.5c6.7-.33 13.366.003 20 1a458.907 458.907 0 0 0-5 27h25c1.24-9.345 2.573-18.679 4-28h20a1379.551 1379.551 0 0 1-12 72h-20a208.477 208.477 0 0 1 5-28 157.135 157.135 0 0 0-25-1 568.745 568.745 0 0 1-4.5 28 108.41 108.41 0 0 1-20.5 1 4762.905 4762.905 0 0 1 13-72z"/><path style="opacity:.935" fill="#fefffe" d="M950.5 413.5c7.255-.313 14.421.02 21.5 1a1781.706 1781.706 0 0 1 13.5 71h-21a110.383 110.383 0 0 0-2-11 96.54 96.54 0 0 0-24-.5 132.493 132.493 0 0 1-6 10.5 61.015 61.015 0 0 1-22 0 3728.474 3728.474 0 0 0 40-71zm5 27c1.293 1.342 2.126 3.009 2.5 5l1.5 12a72.367 72.367 0 0 1-12-.5c3.634-5.261 6.3-10.761 8-16.5zM1013.5 413.5h20a326.67 326.67 0 0 0 7.5 35 839.03 839.03 0 0 1 19.5-34c6.63-.997 13.3-1.33 20-1-.3 24.001-.63 48.001-1 72-7.03.33-14.03-.003-21-1a176.471 176.471 0 0 0 1.5-35 22732.67 22732.67 0 0 0-20 34c-3.23 2.191-6.73 2.524-10.5 1a497.43 497.43 0 0 0-8.5-36 887.022 887.022 0 0 1-11.5 36c-6.63.997-13.3 1.33-20 1a4386.894 4386.894 0 0 1 24-72z"/><path style="opacity:.938" fill="#fefffe" d="M1101.5 413.5a295.66 295.66 0 0 1 40 1.5c6.02 2.683 9.85 7.183 11.5 13.5 1.47 15.334-4.7 26.168-18.5 32.5a108.48 108.48 0 0 1-22 1.5 153.916 153.916 0 0 1-4 21.5c.33.333.67.667 1 1-7.02.831-14.02.664-21-.5 4.61-23.644 8.95-47.31 13-71zm17 16c4.53-.426 8.7.574 12.5 3 1.69 7.08-1.14 11.58-8.5 13.5-2.33.667-4.67.667-7 0a89.72 89.72 0 0 0 3-16.5z"/><path style="opacity:.921" fill="#fefffe" d="M1164.5 413.5h20c-4.07 24.203-8.07 48.203-12 72-7.03.33-14.03-.003-21-1 4.96-23.539 9.29-47.206 13-71z"/><path style="opacity:.936" fill="#fefffe" d="M1284.5 413.5c6.7-.33 13.37.003 20 1 8 12.851 15.84 25.851 23.5 39 1.12-1.449 1.78-3.116 2-5 2-11.654 3.83-23.321 5.5-35h20a1567.188 1567.188 0 0 1-12 72c-6.67.166-13.34 0-20-.5a2430.918 2430.918 0 0 0-24.5-39.5 460.178 460.178 0 0 0-7 39c-6.74.979-13.58 1.312-20.5 1 3.99-24.322 8.32-48.322 13-72z"/><path style="opacity:.928" fill="#fefffe" d="M1520.5 413.5h20a137.951 137.951 0 0 1-5 27.5c8.35.832 16.69.665 25-.5a361.008 361.008 0 0 1 5-26.5c6.66-.5 13.33-.666 20-.5-3.9 24.004-8.23 47.67-13 71a50.512 50.512 0 0 1-20 0c2.04-9.264 3.7-18.597 5-28-8.03-.331-16.03.002-24 1a358.306 358.306 0 0 0-5 28h-20c3.79-24.028 7.79-48.028 12-72z"/><path style="opacity:.925" fill="#fefffe" d="M1684.5 413.5h20c-4.07 24.214-8.07 48.214-12 72h-20c4.07-24.213 8.07-48.213 12-72z"/><path style="opacity:.929" fill="#fefffe" d="M1779.5 413.5h42a302.591 302.591 0 0 1-2 17c-7.34-.166-14.67 0-22 .5a79.624 79.624 0 0 0-2 10.5c7.28-.061 14.28-.061 21 0a188.158 188.158 0 0 0-3.5 16c-6.75.814-13.59 1.314-20.5 1.5-.67 3-1.33 6-2 9 7.33.5 14.66.666 22 .5a118.973 118.973 0 0 0-3 17h-42c4.32-23.947 8.32-47.947 12-72z"/></svg>